<?xml version="1.0" encoding="UTF-8"?>
<svg id="Layer_1" xmlns="http://www.w3.org/2000/svg" version="1.1" viewBox="0 0 48.5 64">
  <!-- Generator: Adobe Illustrator 29.5.1, SVG Export Plug-In . SVG Version: 2.1.0 Build 141)  -->
  <defs>
    <style>
      .st0 {
        fill: #fff;
      }
    </style>
  </defs>
  <g>
    <path class="st0" d="M24.3,64c-13.4,0-24.3-10.9-24.3-24.3s3.4-14.5,9.4-19.2c.4-.3,1.1-.3,1.4.2.3.4.3,1.1-.2,1.4-5.5,4.3-8.6,10.7-8.6,17.6,0,12.3,10,22.3,22.3,22.3s22.3-10,22.3-22.3-3.4-13.8-9.2-18c-.4-.3-.5-1-.2-1.4.3-.4.9-.5,1.4-.2,6.3,4.6,10,11.9,10,19.6,0,13.4-10.9,24.3-24.3,24.3Z"/>
    <path class="st0" d="M24.3,56.6c-1.2,0-2.5-.1-3.6-.4-6.4-1.4-11.5-6.5-12.9-12.9-.3-1.1-.4-2.4-.4-3.6s.1-2.4.4-3.6c.9-4.3,3.5-8,7.1-10.4.5-.3,1.1-.2,1.4.3.3.5.2,1.1-.3,1.4-3.2,2.2-5.5,5.4-6.3,9.2-.2,1-.3,2.1-.3,3.2s.1,2.1.3,3.2c1.2,5.7,5.7,10.2,11.4,11.4,2,.5,4.3.5,6.3,0,5.7-1.2,10.2-5.7,11.4-11.4.2-1,.3-2.1.3-3.2s-.1-2.2-.3-3.2c-.8-3.6-2.9-6.8-5.9-8.9-.4-.3-.6-.9-.2-1.4.3-.4.9-.6,1.4-.2,3.4,2.5,5.8,6.1,6.7,10.1.3,1.2.4,2.4.4,3.6s-.1,2.4-.4,3.6c-1.4,6.4-6.5,11.5-12.9,12.9-1.1.3-2.4.4-3.6.4Z"/>
  </g>
  <path class="st0" d="M24.3,56.6c-1.2,0-2.5-.1-3.6-.4-.5-.1-.8-.5-.8-1v-4.2c0-3.8-3.1-6.9-6.9-6.9h-4.2c-.5,0-.9-.3-1-.8-.3-1.2-.4-2.4-.4-3.6s.1-2.4.4-3.6c.1-.5.5-.8,1-.8h11.3c.3,0,.6.2.8.4.2.3.2.6.1.9-.1.3-.2.6-.2,1,0,1.9,1.5,3.4,3.4,3.4s3.4-1.5,3.4-3.4,0-.7-.2-1c-.1-.3,0-.6.1-.9.2-.3.5-.4.8-.4h11.3c.5,0,.9.3,1,.8.3,1.2.4,2.4.4,3.6s-.1,2.4-.4,3.6c-.1.5-.5.8-1,.8h-4.2c-3.8,0-6.9,3.1-6.9,6.9v4.2c0,.5-.3.9-.8,1-1.2.3-2.4.4-3.6.4ZM21.9,54.4c1.5.3,3.2.3,4.8,0v-3.4c0-4.9,4-8.9,8.9-8.9h3.4c.1-.8.2-1.6.2-2.4s0-1.6-.2-2.4h-9.3c0,.1,0,.2,0,.3,0,3-2.4,5.4-5.4,5.4s-5.4-2.4-5.4-5.4,0-.2,0-.3h-9.3c-.1.8-.2,1.6-.2,2.4s0,1.6.2,2.4h3.4c4.9,0,8.9,4,8.9,8.9v3.4Z"/>
  <path class="st0" d="M24.2,43.1c-3,0-5.4-2.4-5.4-5.4s0-1.2.3-1.7c.7-2.2,2.8-3.7,5.1-3.7s4.5,1.5,5.2,3.8c.2.5.3,1,.3,1.6,0,3-2.4,5.4-5.4,5.4ZM24.2,34.3c-1.5,0-2.8,1-3.2,2.4-.1.3-.2.7-.2,1,0,1.9,1.5,3.4,3.4,3.4s3.4-1.5,3.4-3.4,0-.7-.2-1c-.5-1.5-1.8-2.4-3.3-2.4Z"/>
  <g>
    <path class="st0" d="M24.3,20.4c-.3,0-.6,0-.9-.2L5.8,11.5c-.8-.4-1.2-1.2-1.2-2,0-.8.5-1.6,1.3-1.9L24.1.2c.5-.2,1.1-.2,1.7,0l17.6,8.7c.5.3.9.7,1.1,1.3.2.6,0,1.2-.2,1.7-.2.4-.6.7-1,.9l-4.7,1.9-13.4,5.5c-.3.1-.5.2-.8.2ZM24.9,2s0,0,0,0L6.7,9.5s0,0,0,.1c0,0,0,.1,0,.1l17.6,8.6s0,0,.1,0l18.1-7.4s0,0,0,0c0,0,0,0,0,0L24.9,2s0,0,0,0Z"/>
    <path class="st0" d="M25.1,28.4c-.7,0-1.4,0-2.2,0-.7,0-1.4,0-2.1-.2-1-.1-2-.3-2.9-.4-1.7-.3-3.4-.8-5.1-1.3-.7-.2-1.3-.6-1.8-1.1-.3-.3-.5-.6-.8-1-.4-.7-.6-1.5-.7-2.3,0,0,0-.2,0-.3s0-.1,0-.1l.3-8.9c0-.3.2-.7.5-.8.3-.2.7-.2,1,0l13,6.4s0,0,.1,0l13.4-5.5c.3-.1.7,0,1,.1.3.2.4.5.4.9l-.3,8.8c0,.9-.3,1.8-.8,2.5,0,.1-.2.2-.3.3-.6.8-1.5,1.4-2.5,1.6-2.5.7-5.2,1.1-7.9,1.2h-.2c-.7,0-1.3,0-2,0ZM11.8,14.4l-.2,7.3h0c0,.1,0,.2,0,.2,0,.5.1.9.4,1.3.1.2.3.4.4.6.3.3.7.5,1.1.7,1.6.5,3.2,1,4.8,1.3.9.2,1.8.3,2.7.4.7,0,1.3.1,2,.2,1.4,0,2.7,0,4,0h.2c2.6-.1,5.1-.5,7.5-1.2.6-.2,1.1-.5,1.5-1,0,0,0-.1.2-.2.3-.5.5-1,.5-1.5l.2-7.3-12,4.9c-.5.2-1.2.2-1.7,0l-11.6-5.7Z"/>
    <path class="st0" d="M43.7,18h0c-.6,0-1-.4-1-1v-6.3c0-.6.5-1,1-1h0c.6,0,1,.4,1,1v6.3c0,.6-.5,1-1,1Z"/>
  </g>
</svg>