<?xml version="1.0" encoding="UTF-8"?>
<svg id="Layer_1" xmlns="http://www.w3.org/2000/svg" version="1.1" viewBox="0 0 564.1 69.4">
  <!-- Generator: Adobe Illustrator 29.5.0, SVG Export Plug-In . SVG Version: 2.1.0 Build 137)  -->
  <defs>
    <style>
      .st0 {
        fill: #fff;
      }
    </style>
  </defs>
  <path class="st0" d="M108.5,12.8c-2.2-3.8-5.3-6.6-9.3-8.7-4.1-2.1-8.8-3.1-14.3-3.1h-18v50.2h18c5.5,0,10.3-1.1,14.3-3.1s7.1-4.9,9.3-8.7c2.2-3.8,3.3-8.2,3.3-13.3s-1.1-9.6-3.3-13.3ZM98.1,33c-.9,1.8-2,3.3-3.3,4.4-1.3,1.1-2.9,1.9-4.7,2.4-1.8.5-3.7.7-5.6.7h-5.1V11.9h5.1c2,0,3.8.2,5.6.7,1.8.5,3.3,1.3,4.7,2.4,1.4,1.1,2.5,2.6,3.3,4.4s1.2,4.1,1.2,6.8-.4,5-1.2,6.8Z"/>
  <path class="st0" d="M143.1,20.1c-.6-.9-1.4-1.5-2.5-2s-1.6-.7-3.4-.7-3.5.6-5.2,1.8c-1.1.8-2.1,1.8-2.9,3v-4h-10.7v33h10.7v-16.3c0-1.6.2-2.9.6-4,.5-1.1,1.1-1.9,1.9-2.5.8-.6,1.8-.9,2.8-.9s1.7.2,2.3.4c.6.4,1.2.8,1.7,1.4l4.7-9.2h0Z"/>
  <path class="st0" d="M149.1,1.6c1.2-1.1,2.7-1.6,4.4-1.6s3.3.5,4.5,1.6,1.8,2.5,1.8,4.2-.6,3.1-1.8,4.2-2.7,1.6-4.5,1.6-3.2-.5-4.4-1.6-1.9-2.5-1.9-4.2.6-3.1,1.9-4.2ZM158.8,18.2v33h-10.5V18.2h10.5Z"/>
  <path class="st0" d="M174.7,18.2l7.6,18.3,7.5-18.3h11.5l-19.1,36.8-19.1-36.8h11.6Z"/>
  <path class="st0" d="M206.6,1.6c1.2-1.1,2.7-1.6,4.4-1.6s3.3.5,4.5,1.6,1.8,2.5,1.8,4.2-.6,3.1-1.8,4.2-2.7,1.6-4.5,1.6-3.2-.5-4.4-1.6-1.9-2.5-1.9-4.2.6-3.1,1.9-4.2ZM216.3,18.2v33h-10.5V18.2h10.5Z"/>
  <path class="st0" d="M245.5,26.6c-.7-1-2-1.6-3.7-1.6s-2.1.2-3,.7-1.5,1.2-2,2.1-.7,2-.7,3.3v20.1h-10.9V18.2h10.9v4.9c1-1.8,2.3-3.2,3.9-4.2,1.6-1,3.7-1.5,6.1-1.5,4.1,0,7.1,1.1,9,3.3,1.9,2.2,2.8,5.3,2.8,9.2v21.2h-11.2v-20.1c0-2-.4-3.5-1.1-4.5h0Z"/>
  <path class="st0" d="M291.4,18.2v5.1c-1.1-1.6-2.4-2.9-4-3.9-2.1-1.3-4.6-2-7.3-2s-5.2.7-7.6,1.9c-2.3,1.3-4.3,3.1-5.8,5.6h0c-1.5,2.6-2.3,5.8-2.3,9.4s.8,6.7,2.3,9.2,3.4,4.3,5.8,5.6,4.9,1.9,7.6,1.9,5.2-.7,7.3-2c1.6-.9,2.9-2.2,4-3.8v5.2c0,2.1-.4,3.7-1.1,5.1-.8,1.4-1.8,2.4-3,3.1-1.3.7-2.8,1-4.2,1s-2.6-.2-3.7-.7c-1.1-.4-1.9-1.1-2.6-2s-1.1-2.1-1.2-3.4h-10.5c.3,2.9,1,5.5,2.4,7.7s3.3,4,6,5.2c2.7,1.3,6.7,1.9,10.1,1.9s6.4-.5,9.2-1.8c2.8-1.3,5-3.2,6.6-5.8,1.7-2.6,2.5-6,2.5-10.2V18.2h-10.5ZM290.2,38.7c-.8,1.2-1.7,2.1-2.9,2.7-1.2.6-2.2.9-3.6.9s-2.7-.3-3.9-.9c-1.2-.7-2.2-1.6-2.9-2.8h-.1c-.7-1.2-1.1-2.6-1.1-4.3s.4-3.2,1.1-4.4c.8-1.2,1.7-2.1,2.9-2.7,1.2-.6,2.5-.9,3.9-.9s1.8.2,2.7.5c.9.3,1.8.8,2.5,1.5s1.3,1.5,1.8,2.5.7,1.8.7,3.5-.3,3.2-1.1,4.4Z"/>
  <polygon class="st0" points="344.5 11 344.5 1 322.7 1 319.2 1 311.1 1 311.1 51.2 319.2 51.2 322.7 51.2 344.5 51.2 344.5 41.2 322.7 41.2 322.7 29.6 343.1 29.6 343.1 19.9 322.7 19.9 322.7 11 344.5 11"/>
  <path class="st0" d="M386.4,18.2l-12.6,16,13.3,16.9h-12l-6.9-9.6-6.7,9.6h-12.5l13.5-16.9-12.8-16h12.5l6,8.7,6.2-8.7s12,0,12,0Z"/>
  <path class="st0" d="M426.8,24.8c-1.5-2.6-3.4-4.6-5.8-5.9-2.3-1.3-4.7-2-7.6-2s-5.3.7-7.4,2.2c-1.6,1.1-2.9,2.5-3.9,4.3v-5.2h-10.8v48.7h10.8v-21.2c1,1.8,2.3,3.2,3.9,4.3,2.1,1.5,4.7,2.2,7.4,2.2s5.2-.7,7.6-2,4.3-3.3,5.8-5.9h0c1.5-2.8,2.3-5.9,2.3-9.8s-.8-7.1-2.3-9.7ZM416.6,39.1c-.8,1.2-1.7,2.1-2.9,2.7-1.2.6-2.7.9-3.9.9s-2.4-.3-3.6-.9c-1.2-.6-2.1-1.5-2.9-2.7-.7-1.2-1.1-2.7-1.1-4.4s.3-3.2,1.1-4.4,1.7-2.1,2.9-2.7c1.2-.6,2.2-.9,3.6-.9s2.7.3,3.9.9c1.2.6,2.2,1.5,2.9,2.7s1.1,2.7,1.1,4.4-.4,3.2-1.1,4.4Z"/>
  <path class="st0" d="M460.3,20.1c-.6-.9-1.4-1.5-2.5-2s-1.6-.7-3.4-.7-3.5.6-5.2,1.8c-1.1.8-2.1,1.8-2.9,3v-4h-10.7v33h10.7v-16.3h0c0-1.6.2-2.9.6-4,.5-1.1,1.1-1.9,1.9-2.5s1.8-.9,2.8-.9,1.7.2,2.3.4c.6.4,1.2.8,1.7,1.4,0,0,4.7-9.2,4.7-9.2Z"/>
  <path class="st0" d="M488.7,39.9c-.9,1.4-1.9,2.5-3.3,3.2s-3.3,1.1-4.9,1.1-3.1-.4-4.2-1.1c-1.2-.8-2-1.8-2.6-3.3-.3-.9-.6-1.8-.7-2.8h25.2c.1-.4.1-.8.1-1.3v-1.5c0-3.5-.7-6.5-2.1-9s-3.4-4.4-6-5.7c-2.7-1.3-5.9-2-9.7-2s-7.1.7-9.9,2.1c-2.8,1.3-4.9,3.3-6.4,5.9s-2.2,5.7-2.2,9.2.8,6.5,2.3,9.1,3.7,4.6,6.5,6h0c2.8,1.5,5.7,2.2,9.9,2.2s7.8-.8,10.7-2.4c3-1.6,5.3-4.1,7-7.3l-9.7-2.4h0ZM476.2,25.8c1.1-.7,2.8-1.1,4.1-1.1s2.4.3,3.4.9c.9.5,1.7,1.4,2.2,2.4.4.8.7,1.9.8,3h-13.4c.1-.7.3-1.3.5-1.9.6-1.5,1.4-2.6,2.5-3.3h-.1Z"/>
  <path class="st0" d="M511.4,42.5c1.4.8,2.6,1.3,3.6,1.6s2,.5,2.7.5c1.1,0,1.9-.2,2.4-.7s.8-1.1.8-1.9-.2-1.3-.6-1.8c-.4-.5-1.2-1-2.2-1.5s-2.4-1-4.2-1.5c-1.6-.6-3.1-1.3-4.5-2-1.4-.8-2.6-1.9-3.5-3.2s-1.4-3.1-1.4-5.2.5-3.7,1.6-5.1,2.5-2.4,4.4-3.2c1.8-.7,4-1.1,6.3-1.1s3.7.2,5.3.6,3.2,1,4.7,1.7,2.8,1.6,4.1,2.5l-3.9,7c-1.4-1.3-3-2.4-4.7-3.2-1.8-.8-3.4-1.3-4.9-1.3s-1.8.2-2.3.6-.8.9-.8,1.5.3,1.3.9,1.8c.6.5,1.5.9,2.6,1.3s2.5.9,4.1,1.5c1.7.6,3.3,1.3,4.8,2.1s2.6,1.8,3.5,3.1c.9,1.2,1.3,2.9,1.3,4.9,0,3.5-1.1,6.2-3.3,8s-5.2,2.7-9.1,2.7-4.6-.3-6.6-.8-3.9-1.3-5.6-2.2-3.3-2-4.8-3.1l4.5-7.2c1.7,1.4,3.2,2.5,4.5,3.3,0,0,.3.3.3.3Z"/>
  <path class="st0" d="M544,42.5c1.4.8,2.6,1.3,3.6,1.6s2,.5,2.7.5c1.1,0,1.9-.2,2.4-.7s.8-1.1.8-1.9-.2-1.3-.6-1.8c-.4-.5-1.2-1-2.2-1.5s-2.4-1-4.2-1.5c-1.6-.6-3.1-1.3-4.5-2-1.4-.8-2.6-1.9-3.5-3.2s-1.4-3.1-1.4-5.2.5-3.7,1.6-5.1,2.5-2.4,4.4-3.2c1.8-.7,4-1.1,6.3-1.1s3.7.2,5.3.6,3.2,1,4.7,1.7,2.8,1.6,4.1,2.5l-3.9,7c-1.4-1.3-3-2.4-4.7-3.2-1.8-.8-3.4-1.3-4.9-1.3s-1.8.2-2.3.6-.8.9-.8,1.5.3,1.3.9,1.8c.6.5,1.5.9,2.6,1.3s2.5.9,4.1,1.5c1.7.6,3.3,1.3,4.8,2.1s2.6,1.8,3.5,3.1c.9,1.2,1.3,2.9,1.3,4.9,0,3.5-1.1,6.2-3.3,8s-5.2,2.7-9.1,2.7-4.6-.3-6.6-.8-3.9-1.3-5.6-2.2-3.3-2-4.8-3.1l4.5-7.2c1.7,1.4,3.2,2.5,4.5,3.3l.3.3h0Z"/>
  <path class="st0" d="M45.2,1H5C2.2,1,0,3.2,0,6v40.2c0,2.8,2.2,5,5,5h40.2c2.8,0,5-2.2,5-5V6c0-2.8-2.2-5-5-5ZM41.4,38l-8.5,4.4v-17.3l-19.5,19.5-6.8-6.8,19.4-19.5H8.8l4.4-8.5h28.2v28.2Z"/>
</svg>